<svg width="1000" height="1000" viewBox="0 0 1000 1000" fill="none" xmlns="http://www.w3.org/2000/svg">
<path d="M550.238 675V639C550.238 631.667 553.905 628 561.238 628H590.238C597.572 628 601.238 631.667 601.238 639V672C601.238 738.667 633.572 772 698.238 772H802.238C866.905 772 899.238 738.333 899.238 671V629C899.238 599.667 887.238 576.667 863.238 560C839.238 543.333 810.238 531.333 776.238 524C742.238 516.667 707.905 509 673.238 501C639.238 493 610.238 478.333 586.238 457C562.238 435.667 550.238 407 550.238 371V316C550.238 272 562.905 237.333 588.238 212C613.572 186.667 647.905 174 691.238 174H807.238C850.572 174 884.905 186.667 910.238 212C935.572 237.333 948.238 272 948.238 316V344C948.238 351.333 944.572 355 937.238 355H908.238C900.905 355 897.238 351.333 897.238 344V319C897.238 252.333 864.905 219 800.238 219H697.238C633.238 219 601.238 253 601.238 321V371C601.238 417 642.238 448 724.238 464C758.238 470.667 792.238 478.333 826.238 487C860.905 495.667 890.238 511.333 914.238 534C938.238 556.667 950.238 587.333 950.238 626V675C950.238 719 937.572 753.667 912.238 779C886.905 804.333 852.572 817 809.238 817H691.238C647.905 817 613.572 804.333 588.238 779C562.905 753.667 550.238 719 550.238 675Z" fill="url(#paint0_linear_41_69)"/>
<path d="M264.418 817H235.418C228.085 817 224.418 813 224.418 805V574L30.418 186C26.418 178 28.7513 174 37.418 174H73.418C79.418 174 84.0846 178 87.418 186L247.418 513H252.418L411.418 186C414.751 178 419.418 174 425.418 174H462.418C469.751 174 472.085 178 469.418 186L274.418 574V805C274.418 813 271.085 817 264.418 817Z" fill="url(#paint1_linear_41_69)"/>
<path fill-rule="evenodd" clip-rule="evenodd" d="M53.8358 0H0V106.667H53.8358L53.8358 53.3333H946V106.667H999.836V53.3333H1000V0H999.836H946H53.8358ZM53.8358 893.333H0V1000H49.7981H53.8358H1000V946.667H999.836V893H946V946.667H53.8358V893.333Z" fill="url(#paint2_linear_41_69)"/>
<defs>
<linearGradient id="paint0_linear_41_69" x1="1002.67" y1="42.4" x2="209.736" y2="459.183" gradientUnits="userSpaceOnUse">
<stop stop-color="#FC8181"/>
<stop offset="1" stop-color="#3182CE"/>
</linearGradient>
<linearGradient id="paint1_linear_41_69" x1="502.667" y1="42.4" x2="-290.264" y2="459.183" gradientUnits="userSpaceOnUse">
<stop stop-color="#FC8181"/>
<stop offset="1" stop-color="#3182CE"/>
</linearGradient>
<linearGradient id="paint2_linear_41_69" x1="1005.33" y1="-7.99997" x2="-8.00002" y2="1004" gradientUnits="userSpaceOnUse">
<stop stop-color="#FC8181"/>
<stop offset="1" stop-color="#3182CE"/>
</linearGradient>
</defs>
</svg>
